<mxfile host="app.diagrams.net" modified="2022-03-20T18:21:01.753Z" agent="5.0 (Windows NT 10.0; Win64; x64) AppleWebKit/537.36 (KHTML, like Gecko) Chrome/99.0.4844.74 Safari/537.36" etag="jQrdNOh58Q5zSXH4JOxI" version="15.5.8" type="github">
  <diagram id="_fmpVsAn4_uURuPJqWRr" name="Page-1">
    <mxGraphModel dx="2580" dy="898" grid="1" gridSize="10" guides="1" tooltips="1" connect="1" arrows="1" fold="1" page="1" pageScale="1" pageWidth="850" pageHeight="1100" math="0" shadow="0">
      <root>
        <mxCell id="0" />
        <mxCell id="1" parent="0" />
        <mxCell id="2kePjKWNh7eB1zboFR4R-68" style="edgeStyle=orthogonalEdgeStyle;rounded=0;orthogonalLoop=1;jettySize=auto;html=1;exitX=1;exitY=0.5;exitDx=0;exitDy=0;entryX=0;entryY=0.5;entryDx=0;entryDy=0;strokeColor=#FF3333;" edge="1" parent="1" source="2kePjKWNh7eB1zboFR4R-1" target="2kePjKWNh7eB1zboFR4R-24">
          <mxGeometry relative="1" as="geometry" />
        </mxCell>
        <mxCell id="2kePjKWNh7eB1zboFR4R-1" value="CDR" style="ellipse;whiteSpace=wrap;html=1;" vertex="1" parent="1">
          <mxGeometry x="-30" y="600" width="120" height="80" as="geometry" />
        </mxCell>
        <mxCell id="2kePjKWNh7eB1zboFR4R-4" value="Basic part orders" style="ellipse;whiteSpace=wrap;html=1;" vertex="1" parent="1">
          <mxGeometry x="380" y="600" width="120" height="80" as="geometry" />
        </mxCell>
        <mxCell id="2kePjKWNh7eB1zboFR4R-6" value="part time lead" style="ellipse;whiteSpace=wrap;html=1;" vertex="1" parent="1">
          <mxGeometry x="200" y="760" width="120" height="80" as="geometry" />
        </mxCell>
        <mxCell id="2kePjKWNh7eB1zboFR4R-7" value="chassis build" style="ellipse;whiteSpace=wrap;html=1;" vertex="1" parent="1">
          <mxGeometry x="610" y="550" width="120" height="80" as="geometry" />
        </mxCell>
        <mxCell id="2kePjKWNh7eB1zboFR4R-8" value="chassis paint" style="ellipse;whiteSpace=wrap;html=1;" vertex="1" parent="1">
          <mxGeometry x="610" y="670" width="120" height="80" as="geometry" />
        </mxCell>
        <mxCell id="2kePjKWNh7eB1zboFR4R-9" value="suspension build" style="ellipse;whiteSpace=wrap;html=1;" vertex="1" parent="1">
          <mxGeometry x="610" y="800" width="120" height="80" as="geometry" />
        </mxCell>
        <mxCell id="2kePjKWNh7eB1zboFR4R-10" value="mount build" style="ellipse;whiteSpace=wrap;html=1;" vertex="1" parent="1">
          <mxGeometry x="610" y="910" width="120" height="80" as="geometry" />
        </mxCell>
        <mxCell id="2kePjKWNh7eB1zboFR4R-11" value="battery pack build" style="ellipse;whiteSpace=wrap;html=1;" vertex="1" parent="1">
          <mxGeometry x="610" y="1020" width="120" height="80" as="geometry" />
        </mxCell>
        <mxCell id="2kePjKWNh7eB1zboFR4R-12" value="body build" style="ellipse;whiteSpace=wrap;html=1;" vertex="1" parent="1">
          <mxGeometry x="610" y="1140" width="120" height="80" as="geometry" />
        </mxCell>
        <mxCell id="2kePjKWNh7eB1zboFR4R-13" value="Assemble chassis" style="ellipse;whiteSpace=wrap;html=1;" vertex="1" parent="1">
          <mxGeometry x="990" y="600" width="120" height="80" as="geometry" />
        </mxCell>
        <mxCell id="2kePjKWNh7eB1zboFR4R-14" value="assemble wheels/brakes" style="ellipse;whiteSpace=wrap;html=1;" vertex="1" parent="1">
          <mxGeometry x="990" y="720" width="120" height="80" as="geometry" />
        </mxCell>
        <mxCell id="2kePjKWNh7eB1zboFR4R-15" value="assemble electrical components" style="ellipse;whiteSpace=wrap;html=1;" vertex="1" parent="1">
          <mxGeometry x="990" y="840" width="120" height="80" as="geometry" />
        </mxCell>
        <mxCell id="2kePjKWNh7eB1zboFR4R-16" value="assemble driver system" style="ellipse;whiteSpace=wrap;html=1;" vertex="1" parent="1">
          <mxGeometry x="990" y="960" width="120" height="80" as="geometry" />
        </mxCell>
        <mxCell id="2kePjKWNh7eB1zboFR4R-17" value="assemble body" style="ellipse;whiteSpace=wrap;html=1;" vertex="1" parent="1">
          <mxGeometry x="990" y="1080" width="120" height="80" as="geometry" />
        </mxCell>
        <mxCell id="2kePjKWNh7eB1zboFR4R-76" value="" style="edgeStyle=orthogonalEdgeStyle;rounded=0;orthogonalLoop=1;jettySize=auto;html=1;strokeColor=#FF3333;" edge="1" parent="1" source="2kePjKWNh7eB1zboFR4R-24" target="2kePjKWNh7eB1zboFR4R-4">
          <mxGeometry relative="1" as="geometry" />
        </mxCell>
        <mxCell id="2kePjKWNh7eB1zboFR4R-24" value="part acquisition" style="ellipse;whiteSpace=wrap;html=1;" vertex="1" parent="1">
          <mxGeometry x="200" y="600" width="120" height="80" as="geometry" />
        </mxCell>
        <mxCell id="2kePjKWNh7eB1zboFR4R-26" value="" style="endArrow=classic;html=1;rounded=0;entryX=0.5;entryY=0;entryDx=0;entryDy=0;" edge="1" parent="1" target="2kePjKWNh7eB1zboFR4R-6">
          <mxGeometry width="50" height="50" relative="1" as="geometry">
            <mxPoint x="258" y="680" as="sourcePoint" />
            <mxPoint x="290" y="757" as="targetPoint" />
          </mxGeometry>
        </mxCell>
        <mxCell id="2kePjKWNh7eB1zboFR4R-27" value="system building" style="ellipse;whiteSpace=wrap;html=1;" vertex="1" parent="1">
          <mxGeometry x="380" y="760" width="120" height="80" as="geometry" />
        </mxCell>
        <mxCell id="2kePjKWNh7eB1zboFR4R-30" value="" style="endArrow=classic;html=1;rounded=0;entryX=0;entryY=0.5;entryDx=0;entryDy=0;" edge="1" parent="1" target="2kePjKWNh7eB1zboFR4R-27">
          <mxGeometry width="50" height="50" relative="1" as="geometry">
            <mxPoint x="320" y="800" as="sourcePoint" />
            <mxPoint x="370" y="750" as="targetPoint" />
          </mxGeometry>
        </mxCell>
        <mxCell id="2kePjKWNh7eB1zboFR4R-32" value="" style="endArrow=classic;html=1;rounded=0;entryX=-0.003;entryY=0.703;entryDx=0;entryDy=0;entryPerimeter=0;" edge="1" parent="1" target="2kePjKWNh7eB1zboFR4R-8">
          <mxGeometry width="50" height="50" relative="1" as="geometry">
            <mxPoint x="500" y="800" as="sourcePoint" />
            <mxPoint x="550" y="750" as="targetPoint" />
          </mxGeometry>
        </mxCell>
        <mxCell id="2kePjKWNh7eB1zboFR4R-33" value="" style="endArrow=classic;html=1;rounded=0;entryX=0;entryY=0.375;entryDx=0;entryDy=0;entryPerimeter=0;exitX=1;exitY=0.5;exitDx=0;exitDy=0;" edge="1" parent="1" source="2kePjKWNh7eB1zboFR4R-27" target="2kePjKWNh7eB1zboFR4R-9">
          <mxGeometry width="50" height="50" relative="1" as="geometry">
            <mxPoint x="510" y="810" as="sourcePoint" />
            <mxPoint x="619.6399999999999" y="736.24" as="targetPoint" />
          </mxGeometry>
        </mxCell>
        <mxCell id="2kePjKWNh7eB1zboFR4R-34" value="" style="endArrow=classic;html=1;rounded=0;exitX=1;exitY=0.5;exitDx=0;exitDy=0;" edge="1" parent="1" target="2kePjKWNh7eB1zboFR4R-10">
          <mxGeometry width="50" height="50" relative="1" as="geometry">
            <mxPoint x="500" y="800" as="sourcePoint" />
            <mxPoint x="610" y="830" as="targetPoint" />
          </mxGeometry>
        </mxCell>
        <mxCell id="2kePjKWNh7eB1zboFR4R-35" value="" style="endArrow=classic;html=1;rounded=0;entryX=0;entryY=0.375;entryDx=0;entryDy=0;entryPerimeter=0;exitX=1;exitY=0.5;exitDx=0;exitDy=0;" edge="1" parent="1" target="2kePjKWNh7eB1zboFR4R-11">
          <mxGeometry width="50" height="50" relative="1" as="geometry">
            <mxPoint x="500" y="800" as="sourcePoint" />
            <mxPoint x="610" y="830" as="targetPoint" />
          </mxGeometry>
        </mxCell>
        <mxCell id="2kePjKWNh7eB1zboFR4R-38" value="assembly&lt;br&gt;" style="ellipse;whiteSpace=wrap;html=1;" vertex="1" parent="1">
          <mxGeometry x="830" y="760" width="120" height="80" as="geometry" />
        </mxCell>
        <mxCell id="2kePjKWNh7eB1zboFR4R-40" value="" style="endArrow=classic;html=1;rounded=0;" edge="1" parent="1" target="2kePjKWNh7eB1zboFR4R-38">
          <mxGeometry width="50" height="50" relative="1" as="geometry">
            <mxPoint x="730" y="707.84" as="sourcePoint" />
            <mxPoint x="866.3600000000001" y="880.0000000000001" as="targetPoint" />
          </mxGeometry>
        </mxCell>
        <mxCell id="2kePjKWNh7eB1zboFR4R-41" value="" style="endArrow=classic;html=1;rounded=0;entryX=0;entryY=0.5;entryDx=0;entryDy=0;" edge="1" parent="1" target="2kePjKWNh7eB1zboFR4R-38">
          <mxGeometry width="50" height="50" relative="1" as="geometry">
            <mxPoint x="730" y="840.0000000000001" as="sourcePoint" />
            <mxPoint x="844.565088828936" y="906.0349260766383" as="targetPoint" />
          </mxGeometry>
        </mxCell>
        <mxCell id="2kePjKWNh7eB1zboFR4R-42" value="" style="endArrow=classic;html=1;rounded=0;" edge="1" parent="1">
          <mxGeometry width="50" height="50" relative="1" as="geometry">
            <mxPoint x="730" y="950" as="sourcePoint" />
            <mxPoint x="860" y="830" as="targetPoint" />
          </mxGeometry>
        </mxCell>
        <mxCell id="2kePjKWNh7eB1zboFR4R-43" value="" style="endArrow=classic;html=1;rounded=0;entryX=0.5;entryY=1;entryDx=0;entryDy=0;" edge="1" parent="1" target="2kePjKWNh7eB1zboFR4R-38">
          <mxGeometry width="50" height="50" relative="1" as="geometry">
            <mxPoint x="730" y="1060" as="sourcePoint" />
            <mxPoint x="860" y="940" as="targetPoint" />
          </mxGeometry>
        </mxCell>
        <mxCell id="2kePjKWNh7eB1zboFR4R-44" value="" style="endArrow=classic;html=1;rounded=0;entryX=0.723;entryY=0.988;entryDx=0;entryDy=0;entryPerimeter=0;" edge="1" parent="1" target="2kePjKWNh7eB1zboFR4R-38">
          <mxGeometry width="50" height="50" relative="1" as="geometry">
            <mxPoint x="730" y="1170" as="sourcePoint" />
            <mxPoint x="890" y="950" as="targetPoint" />
          </mxGeometry>
        </mxCell>
        <mxCell id="2kePjKWNh7eB1zboFR4R-45" value="" style="endArrow=classic;html=1;rounded=0;entryX=0;entryY=0.5;entryDx=0;entryDy=0;exitX=1;exitY=0.5;exitDx=0;exitDy=0;" edge="1" parent="1" target="2kePjKWNh7eB1zboFR4R-12">
          <mxGeometry width="50" height="50" relative="1" as="geometry">
            <mxPoint x="500" y="800" as="sourcePoint" />
            <mxPoint x="610" y="1050" as="targetPoint" />
          </mxGeometry>
        </mxCell>
        <mxCell id="2kePjKWNh7eB1zboFR4R-46" value="" style="endArrow=classic;html=1;rounded=0;" edge="1" parent="1">
          <mxGeometry width="50" height="50" relative="1" as="geometry">
            <mxPoint x="950" y="790" as="sourcePoint" />
            <mxPoint x="990" y="770" as="targetPoint" />
          </mxGeometry>
        </mxCell>
        <mxCell id="2kePjKWNh7eB1zboFR4R-47" value="" style="endArrow=classic;html=1;rounded=0;" edge="1" parent="1" target="2kePjKWNh7eB1zboFR4R-13">
          <mxGeometry width="50" height="50" relative="1" as="geometry">
            <mxPoint x="940" y="780" as="sourcePoint" />
            <mxPoint x="980" y="760" as="targetPoint" />
          </mxGeometry>
        </mxCell>
        <mxCell id="2kePjKWNh7eB1zboFR4R-48" value="" style="endArrow=classic;html=1;rounded=0;" edge="1" parent="1" target="2kePjKWNh7eB1zboFR4R-15">
          <mxGeometry width="50" height="50" relative="1" as="geometry">
            <mxPoint x="950" y="800" as="sourcePoint" />
            <mxPoint x="1032.159580319761" y="695.4332614112132" as="targetPoint" />
          </mxGeometry>
        </mxCell>
        <mxCell id="2kePjKWNh7eB1zboFR4R-49" value="" style="endArrow=classic;html=1;rounded=0;" edge="1" parent="1" target="2kePjKWNh7eB1zboFR4R-16">
          <mxGeometry width="50" height="50" relative="1" as="geometry">
            <mxPoint x="940" y="820" as="sourcePoint" />
            <mxPoint x="1001.5889360201313" y="869.2711488161049" as="targetPoint" />
          </mxGeometry>
        </mxCell>
        <mxCell id="2kePjKWNh7eB1zboFR4R-51" value="final testing and integration" style="ellipse;whiteSpace=wrap;html=1;" vertex="1" parent="1">
          <mxGeometry x="1220" y="720" width="120" height="80" as="geometry" />
        </mxCell>
        <mxCell id="2kePjKWNh7eB1zboFR4R-52" value="" style="endArrow=classic;html=1;rounded=0;" edge="1" parent="1" target="2kePjKWNh7eB1zboFR4R-51">
          <mxGeometry width="50" height="50" relative="1" as="geometry">
            <mxPoint x="1110" y="640" as="sourcePoint" />
            <mxPoint x="1160" y="590" as="targetPoint" />
          </mxGeometry>
        </mxCell>
        <mxCell id="2kePjKWNh7eB1zboFR4R-54" value="" style="endArrow=classic;html=1;rounded=0;entryX=0;entryY=0.5;entryDx=0;entryDy=0;" edge="1" parent="1" target="2kePjKWNh7eB1zboFR4R-51">
          <mxGeometry width="50" height="50" relative="1" as="geometry">
            <mxPoint x="1110" y="760" as="sourcePoint" />
            <mxPoint x="1238.802588022199" y="850.9194738980227" as="targetPoint" />
          </mxGeometry>
        </mxCell>
        <mxCell id="2kePjKWNh7eB1zboFR4R-55" value="" style="endArrow=classic;html=1;rounded=0;" edge="1" parent="1" target="2kePjKWNh7eB1zboFR4R-51">
          <mxGeometry width="50" height="50" relative="1" as="geometry">
            <mxPoint x="1110" y="879.5" as="sourcePoint" />
            <mxPoint x="1220" y="879.5" as="targetPoint" />
          </mxGeometry>
        </mxCell>
        <mxCell id="2kePjKWNh7eB1zboFR4R-56" value="" style="endArrow=classic;html=1;rounded=0;entryX=0.313;entryY=0.998;entryDx=0;entryDy=0;entryPerimeter=0;" edge="1" parent="1" target="2kePjKWNh7eB1zboFR4R-51">
          <mxGeometry width="50" height="50" relative="1" as="geometry">
            <mxPoint x="1110" y="995.27" as="sourcePoint" />
            <mxPoint x="1238.6206896551726" y="904.7355172413791" as="targetPoint" />
          </mxGeometry>
        </mxCell>
        <mxCell id="2kePjKWNh7eB1zboFR4R-58" value="" style="endArrow=classic;html=1;rounded=0;" edge="1" parent="1">
          <mxGeometry width="50" height="50" relative="1" as="geometry">
            <mxPoint x="1340" y="760" as="sourcePoint" />
            <mxPoint x="1410" y="700" as="targetPoint" />
          </mxGeometry>
        </mxCell>
        <mxCell id="2kePjKWNh7eB1zboFR4R-59" value="modify mechanical parts" style="ellipse;whiteSpace=wrap;html=1;" vertex="1" parent="1">
          <mxGeometry x="1390" y="630" width="120" height="80" as="geometry" />
        </mxCell>
        <mxCell id="2kePjKWNh7eB1zboFR4R-60" value="testing and optimisation&amp;nbsp;" style="ellipse;whiteSpace=wrap;html=1;" vertex="1" parent="1">
          <mxGeometry x="1390" y="790" width="120" height="80" as="geometry" />
        </mxCell>
        <mxCell id="2kePjKWNh7eB1zboFR4R-63" value="final product" style="ellipse;whiteSpace=wrap;html=1;" vertex="1" parent="1">
          <mxGeometry x="1580" y="710" width="120" height="80" as="geometry" />
        </mxCell>
        <mxCell id="2kePjKWNh7eB1zboFR4R-66" value="" style="endArrow=classic;html=1;rounded=0;entryX=0;entryY=0;entryDx=0;entryDy=0;" edge="1" parent="1" target="2kePjKWNh7eB1zboFR4R-63">
          <mxGeometry width="50" height="50" relative="1" as="geometry">
            <mxPoint x="1510" y="678.8199999999999" as="sourcePoint" />
            <mxPoint x="1594.6298790522433" y="629.9950697775519" as="targetPoint" />
          </mxGeometry>
        </mxCell>
        <mxCell id="2kePjKWNh7eB1zboFR4R-70" style="edgeStyle=orthogonalEdgeStyle;rounded=0;orthogonalLoop=1;jettySize=auto;html=1;exitX=1;exitY=0.5;exitDx=0;exitDy=0;strokeColor=#FF3333;" edge="1" parent="1">
          <mxGeometry relative="1" as="geometry">
            <mxPoint x="320" y="639.29" as="sourcePoint" />
            <mxPoint x="380" y="639.29" as="targetPoint" />
          </mxGeometry>
        </mxCell>
        <mxCell id="2kePjKWNh7eB1zboFR4R-71" style="edgeStyle=orthogonalEdgeStyle;rounded=0;orthogonalLoop=1;jettySize=auto;html=1;entryX=0.5;entryY=0;entryDx=0;entryDy=0;strokeColor=#FF3333;exitX=0.5;exitY=1;exitDx=0;exitDy=0;" edge="1" parent="1" source="2kePjKWNh7eB1zboFR4R-4" target="2kePjKWNh7eB1zboFR4R-27">
          <mxGeometry relative="1" as="geometry">
            <mxPoint x="440" y="690" as="sourcePoint" />
            <mxPoint x="540" y="680" as="targetPoint" />
          </mxGeometry>
        </mxCell>
        <mxCell id="2kePjKWNh7eB1zboFR4R-75" style="edgeStyle=orthogonalEdgeStyle;rounded=0;orthogonalLoop=1;jettySize=auto;html=1;exitX=1;exitY=0.5;exitDx=0;exitDy=0;strokeColor=#FF3333;entryX=0;entryY=1;entryDx=0;entryDy=0;" edge="1" parent="1" target="2kePjKWNh7eB1zboFR4R-7">
          <mxGeometry relative="1" as="geometry">
            <mxPoint x="500" y="798.5699999999999" as="sourcePoint" />
            <mxPoint x="560" y="798.5699999999999" as="targetPoint" />
            <Array as="points">
              <mxPoint x="500" y="670" />
              <mxPoint x="628" y="670" />
            </Array>
          </mxGeometry>
        </mxCell>
        <mxCell id="2kePjKWNh7eB1zboFR4R-77" style="edgeStyle=orthogonalEdgeStyle;rounded=0;orthogonalLoop=1;jettySize=auto;html=1;exitX=1;exitY=0.5;exitDx=0;exitDy=0;entryX=0.346;entryY=-0.018;entryDx=0;entryDy=0;strokeColor=#FF3333;entryPerimeter=0;" edge="1" parent="1" source="2kePjKWNh7eB1zboFR4R-7" target="2kePjKWNh7eB1zboFR4R-38">
          <mxGeometry relative="1" as="geometry">
            <mxPoint x="740" y="589.29" as="sourcePoint" />
            <mxPoint x="850" y="589.29" as="targetPoint" />
          </mxGeometry>
        </mxCell>
        <mxCell id="2kePjKWNh7eB1zboFR4R-79" value="" style="endArrow=classic;html=1;rounded=0;strokeColor=#000000;entryX=0.586;entryY=0.007;entryDx=0;entryDy=0;entryPerimeter=0;" edge="1" parent="1" target="2kePjKWNh7eB1zboFR4R-8">
          <mxGeometry width="50" height="50" relative="1" as="geometry">
            <mxPoint x="680" y="630" as="sourcePoint" />
            <mxPoint x="730" y="580" as="targetPoint" />
          </mxGeometry>
        </mxCell>
        <mxCell id="2kePjKWNh7eB1zboFR4R-80" value="" style="endArrow=classic;html=1;rounded=0;strokeColor=#000000;entryX=1;entryY=0;entryDx=0;entryDy=0;" edge="1" parent="1" target="2kePjKWNh7eB1zboFR4R-6">
          <mxGeometry width="50" height="50" relative="1" as="geometry">
            <mxPoint x="400" y="670" as="sourcePoint" />
            <mxPoint x="450" y="620" as="targetPoint" />
          </mxGeometry>
        </mxCell>
        <mxCell id="2kePjKWNh7eB1zboFR4R-81" value="" style="endArrow=classic;html=1;rounded=0;strokeColor=#F53131;entryX=0;entryY=0.5;entryDx=0;entryDy=0;" edge="1" parent="1" target="2kePjKWNh7eB1zboFR4R-17">
          <mxGeometry width="50" height="50" relative="1" as="geometry">
            <mxPoint x="930" y="830" as="sourcePoint" />
            <mxPoint x="980" y="780" as="targetPoint" />
          </mxGeometry>
        </mxCell>
        <mxCell id="2kePjKWNh7eB1zboFR4R-82" value="" style="endArrow=classic;html=1;rounded=0;strokeColor=#F53131;entryX=0.5;entryY=1;entryDx=0;entryDy=0;" edge="1" parent="1" target="2kePjKWNh7eB1zboFR4R-51">
          <mxGeometry width="50" height="50" relative="1" as="geometry">
            <mxPoint x="1110" y="1110" as="sourcePoint" />
            <mxPoint x="1160" y="1060" as="targetPoint" />
          </mxGeometry>
        </mxCell>
        <mxCell id="2kePjKWNh7eB1zboFR4R-83" value="" style="endArrow=classic;html=1;rounded=0;strokeColor=#F53131;" edge="1" parent="1" target="2kePjKWNh7eB1zboFR4R-60">
          <mxGeometry width="50" height="50" relative="1" as="geometry">
            <mxPoint x="1340" y="775" as="sourcePoint" />
            <mxPoint x="1390" y="725" as="targetPoint" />
          </mxGeometry>
        </mxCell>
        <mxCell id="2kePjKWNh7eB1zboFR4R-85" value="" style="endArrow=classic;html=1;rounded=0;strokeColor=#F53131;entryX=0;entryY=1;entryDx=0;entryDy=0;" edge="1" parent="1" target="2kePjKWNh7eB1zboFR4R-63">
          <mxGeometry width="50" height="50" relative="1" as="geometry">
            <mxPoint x="1510" y="824.4" as="sourcePoint" />
            <mxPoint x="1571.775476084143" y="855.6008843012654" as="targetPoint" />
          </mxGeometry>
        </mxCell>
      </root>
    </mxGraphModel>
  </diagram>
</mxfile>
